<?xml version="1.0" standalone="no"?>
<!DOCTYPE svg PUBLIC "-//W3C//DTD SVG 20010904//EN"
 "http://www.w3.org/TR/2001/REC-SVG-20010904/DTD/svg10.dtd">
<svg version="1.0" xmlns="http://www.w3.org/2000/svg"
 width="1500.000000pt" height="1125.000000pt" viewBox="0 0 1500.000000 1125.000000"
 preserveAspectRatio="xMidYMid meet">

<g transform="translate(0.000000,1125.000000) scale(0.100000,-0.100000)"
fill="#000000" stroke="none">
<path d="M0 5625 l0 -5625 7500 0 7500 0 0 5625 0 5625 -7500 0 -7500 0 0
-5625z m8003 2020 c32 -77 83 -198 112 -270 79 -192 138 -335 285 -690 73
-176 156 -378 185 -450 30 -71 79 -191 110 -265 53 -127 103 -247 215 -520 26
-63 79 -191 118 -285 81 -197 268 -649 419 -1015 58 -140 147 -357 199 -482
l93 -228 -218 0 -217 0 -72 173 c-39 94 -117 282 -172 417 -56 135 -132 319
-170 410 -104 253 -364 881 -499 1210 -67 162 -142 342 -166 400 -42 101 -132
319 -248 600 -30 74 -148 359 -261 633 -113 274 -206 500 -206 503 0 2 98 3
217 2 l218 -3 58 -140z m-905 90 c6 -16 40 -102 77 -190 81 -194 191 -459 255
-615 110 -267 285 -691 320 -775 21 -49 75 -180 120 -290 45 -110 105 -254
132 -320 27 -66 70 -169 95 -230 24 -60 87 -211 138 -335 52 -124 137 -331
191 -460 53 -129 114 -278 136 -330 21 -52 68 -165 103 -250 35 -85 93 -227
130 -315 37 -88 69 -166 72 -172 4 -10 -43 -13 -214 -13 l-218 0 -37 88 c-20
48 -64 155 -98 237 -33 83 -74 179 -89 215 l-27 65 -458 3 c-429 2 -457 3
-452 20 3 9 43 107 89 217 l83 200 278 3 c216 2 277 5 273 15 -7 16 -238 571
-333 802 -41 99 -92 222 -112 272 -20 51 -39 93 -42 93 -3 0 -28 -53 -55 -117
-61 -148 -104 -252 -195 -473 -39 -96 -99 -239 -131 -317 -124 -301 -236 -571
-340 -823 -39 -96 -102 -247 -138 -335 l-67 -160 -217 -3 c-119 -1 -217 0
-217 2 0 6 64 162 260 636 67 162 137 331 155 375 18 44 71 172 118 285 47
113 113 273 146 355 34 83 86 209 116 280 30 72 104 252 165 400 61 149 126
307 146 352 l34 82 -61 148 c-33 81 -81 199 -107 261 -27 68 -49 108 -53 100
-7 -13 -197 -471 -254 -613 -18 -44 -98 -240 -179 -435 -81 -195 -172 -416
-203 -490 -62 -151 -157 -380 -238 -575 -30 -71 -109 -263 -176 -425 -66 -162
-154 -374 -193 -470 -40 -96 -81 -196 -92 -222 l-19 -48 -217 0 c-120 0 -218
3 -218 6 0 3 22 58 49 122 27 64 77 183 110 265 34 81 88 212 121 292 83 201
174 420 225 545 24 58 83 200 130 315 48 116 141 341 207 500 66 160 151 367
190 460 39 94 85 206 103 250 29 71 237 573 335 810 20 50 94 227 163 395 69
168 133 322 142 344 17 41 26 39 43 -9z"/>
</g>
</svg>
